# Blender v2.80 (sub 75) OBJ File: 'shotgun.blend'
# www.blender.org
mtllib shotgun.mtl
o Cylinder
v -2.099545 0.000000 -0.082692
v 1.000000 -0.000000 -0.052480
v -2.099545 -0.198140 -0.000620
v 1.000000 -0.176777 0.020743
v -2.099545 -0.280212 0.197520
v 1.000000 -0.250000 0.197520
v -2.099545 -0.198140 0.395659
v 1.000000 -0.176777 0.374296
v -2.099545 0.000000 0.477732
v 1.000000 -0.000000 0.447520
v -2.099545 0.198140 0.395659
v 1.000000 0.176777 0.374296
v -2.099545 0.280212 0.197520
v 1.000000 0.250000 0.197520
v -2.099545 0.198140 -0.000620
v 1.000000 0.176777 0.020743
v 1.000000 -0.000000 0.368644
v -2.099545 0.000000 0.385448
v 1.000000 -0.121003 0.318523
v -2.099545 -0.132886 0.330405
v 1.000000 -0.121003 0.076517
v -2.099544 -0.132886 0.064634
v 1.000000 -0.000000 0.026396
v -2.099544 0.000000 0.009591
v 1.000000 0.121003 0.318523
v -2.099545 0.132886 0.330405
v 1.000000 0.121003 0.076517
v -2.099545 0.132886 0.064634
v 1.000000 0.171124 0.197520
v -2.099545 0.187929 0.197520
v 1.000000 -0.171124 0.197520
v -2.099544 -0.187929 0.197520
v -2.099544 0.000000 -0.501964
v 1.000000 -0.000000 -0.471753
v -2.099544 -0.198140 -0.419892
v 1.000000 -0.176777 -0.398529
v -2.099544 -0.280212 -0.221753
v 1.000000 -0.250000 -0.221753
v -2.099544 -0.198140 -0.023613
v 1.000000 -0.176777 -0.044976
v -2.099544 0.000000 0.058459
v 1.000000 -0.000000 0.028247
v -2.099544 0.198140 -0.023613
v 1.000000 0.176777 -0.044976
v -2.099544 0.280212 -0.221753
v 1.000000 0.250000 -0.221753
v -2.099544 0.198140 -0.419892
v 1.000000 0.176777 -0.398529
v 1.000000 -0.000000 -0.050629
v -2.099544 0.000000 -0.033824
v 1.000000 -0.121003 -0.100750
v -2.099544 -0.132886 -0.088867
v 1.000000 -0.121003 -0.342756
v -2.099544 -0.132886 -0.354638
v 1.000000 -0.000000 -0.392877
v -2.099544 0.000000 -0.409681
v 1.000000 0.121003 -0.100750
v -2.099544 0.132886 -0.088867
v 1.000000 0.121003 -0.342756
v -2.099544 0.132886 -0.354638
v 1.000000 0.171124 -0.221753
v -2.099544 0.187929 -0.221753
v 1.000000 -0.171124 -0.221753
v -2.099544 -0.187929 -0.221753
vt 1.000000 0.500000
vt 1.000000 1.000000
vt 0.875000 1.000000
vt 0.875000 0.500000
vt 0.750000 1.000000
vt 0.750000 0.500000
vt 0.625000 1.000000
vt 0.625000 0.500000
vt 0.500000 1.000000
vt 0.500000 0.500000
vt 0.375000 1.000000
vt 0.375000 0.500000
vt 0.250000 1.000000
vt 0.250000 0.500000
vt 0.419706 0.419706
vt 0.250000 0.490000
vt 0.080294 0.419706
vt 0.010000 0.250000
vt 0.085721 0.250000
vt 0.133837 0.366163
vt 0.250000 0.414279
vt 0.366163 0.366163
vt 0.414279 0.250000
vt 0.490000 0.250000
vt 0.125000 1.000000
vt 0.125000 0.500000
vt 0.000000 1.000000
vt 0.000000 0.500000
vt 0.750000 0.490000
vt 0.919706 0.419706
vt 0.990000 0.250000
vt 0.910960 0.250000
vt 0.863816 0.363816
vt 0.750000 0.410960
vt 0.636184 0.363816
vt 0.589040 0.250000
vt 0.510000 0.250000
vt 0.580294 0.419706
vt 0.125000 0.561516
vt 0.125000 0.970700
vt 0.250000 0.970700
vt 0.250000 0.561516
vt 0.366163 0.133837
vt 0.250000 0.085721
vt 0.133837 0.133837
vt 0.080294 0.080294
vt 0.250000 0.010000
vt 0.419706 0.080294
vt 0.750000 0.561516
vt 0.750000 0.970700
vt 0.875000 0.970700
vt 0.875000 0.561516
vt 0.375000 0.970700
vt 0.375000 0.561516
vt 0.625000 0.561516
vt 0.625000 0.970700
vt 0.500000 0.561516
vt 0.500000 0.970700
vt 0.000000 0.561516
vt 0.000000 0.970700
vt 1.000000 0.970700
vt 1.000000 0.561516
vt 0.636184 0.136184
vt 0.750000 0.089040
vt 0.863816 0.136184
vt 0.919706 0.080294
vt 0.750000 0.010000
vt 0.580294 0.080294
vt 1.000000 0.500000
vt 1.000000 1.000000
vt 0.875000 1.000000
vt 0.875000 0.500000
vt 0.750000 1.000000
vt 0.750000 0.500000
vt 0.625000 1.000000
vt 0.625000 0.500000
vt 0.500000 1.000000
vt 0.500000 0.500000
vt 0.375000 1.000000
vt 0.375000 0.500000
vt 0.250000 1.000000
vt 0.250000 0.500000
vt 0.419706 0.419706
vt 0.250000 0.490000
vt 0.080294 0.419706
vt 0.010000 0.250000
vt 0.085721 0.250000
vt 0.133837 0.366163
vt 0.250000 0.414279
vt 0.366163 0.366163
vt 0.414279 0.250000
vt 0.490000 0.250000
vt 0.125000 1.000000
vt 0.125000 0.500000
vt 0.000000 1.000000
vt 0.000000 0.500000
vt 0.750000 0.490000
vt 0.919706 0.419706
vt 0.990000 0.250000
vt 0.910960 0.250000
vt 0.863816 0.363816
vt 0.750000 0.410960
vt 0.636184 0.363816
vt 0.589040 0.250000
vt 0.510000 0.250000
vt 0.580294 0.419706
vt 0.125000 0.561516
vt 0.125000 0.970700
vt 0.250000 0.970700
vt 0.250000 0.561516
vt 0.366163 0.133837
vt 0.250000 0.085721
vt 0.133837 0.133837
vt 0.080294 0.080294
vt 0.250000 0.010000
vt 0.419706 0.080294
vt 0.750000 0.561516
vt 0.750000 0.970700
vt 0.875000 0.970700
vt 0.875000 0.561516
vt 0.375000 0.970700
vt 0.375000 0.561516
vt 0.625000 0.561516
vt 0.625000 0.970700
vt 0.500000 0.561516
vt 0.500000 0.970700
vt 0.000000 0.561516
vt 0.000000 0.970700
vt 1.000000 0.970700
vt 1.000000 0.561516
vt 0.636184 0.136184
vt 0.750000 0.089040
vt 0.863816 0.136184
vt 0.919706 0.080294
vt 0.750000 0.010000
vt 0.580294 0.080294
vn 0.0090 -0.3827 -0.9238
vn 0.0090 -0.9238 -0.3827
vn 0.0090 -0.9238 0.3827
vn 0.0090 -0.3827 0.9238
vn 0.0090 0.3827 0.9238
vn 0.0090 0.9238 0.3827
vn 1.0000 -0.0000 -0.0000
vn 0.0090 0.9238 -0.3827
vn 0.0090 0.3827 -0.9238
vn -1.0000 0.0000 0.0000
vn -0.0050 -0.9239 0.3827
vn -0.0050 0.9239 0.3827
vn -0.0050 -0.9239 -0.3827
vn -0.0050 0.9239 -0.3827
vn -0.0050 0.3827 -0.9239
vn -0.0050 -0.3827 0.9239
vn -0.0050 0.3827 0.9239
vn -0.0050 -0.3827 -0.9239
usemtl Material.001
s off
f 1/1/1 2/2/1 4/3/1 3/4/1
f 3/4/2 4/3/2 6/5/2 5/6/2
f 5/6/3 6/5/3 8/7/3 7/8/3
f 7/8/4 8/7/4 10/9/4 9/10/4
f 9/10/5 10/9/5 12/11/5 11/12/5
f 11/12/6 12/11/6 14/13/6 13/14/6
f 4/15/7 2/16/7 16/17/7 14/18/7 29/19/7 27/20/7 23/21/7 21/22/7 31/23/7 6/24/7
f 13/14/8 14/13/8 16/25/8 15/26/8
f 15/26/9 16/25/9 2/27/9 1/28/9
f 1/29/10 3/30/10 5/31/10 32/32/10 22/33/10 24/34/10 28/35/10 30/36/10 13/37/10 15/38/10
f 28/39/11 27/40/11 29/41/11 30/42/11
f 6/24/7 31/23/7 19/43/7 17/44/7 25/45/7 29/19/7 14/18/7 12/46/7 10/47/7 8/48/7
f 32/49/12 31/50/12 21/51/12 22/52/12
f 30/42/13 29/41/13 25/53/13 26/54/13
f 20/55/14 19/56/14 31/50/14 32/49/14
f 18/57/15 17/58/15 19/56/15 20/55/15
f 24/59/16 23/60/16 27/40/16 28/39/16
f 22/52/17 21/51/17 23/61/17 24/62/17
f 26/54/18 25/53/18 17/58/18 18/57/18
f 13/37/10 30/36/10 26/63/10 18/64/10 20/65/10 32/32/10 5/31/10 7/66/10 9/67/10 11/68/10
f 33/69/1 34/70/1 36/71/1 35/72/1
f 35/72/2 36/71/2 38/73/2 37/74/2
f 37/74/3 38/73/3 40/75/3 39/76/3
f 39/76/4 40/75/4 42/77/4 41/78/4
f 41/78/5 42/77/5 44/79/5 43/80/5
f 43/80/6 44/79/6 46/81/6 45/82/6
f 36/83/7 34/84/7 48/85/7 46/86/7 61/87/7 59/88/7 55/89/7 53/90/7 63/91/7 38/92/7
f 45/82/8 46/81/8 48/93/8 47/94/8
f 47/94/9 48/93/9 34/95/9 33/96/9
f 33/97/10 35/98/10 37/99/10 64/100/10 54/101/10 56/102/10 60/103/10 62/104/10 45/105/10 47/106/10
f 60/107/11 59/108/11 61/109/11 62/110/11
f 38/92/7 63/91/7 51/111/7 49/112/7 57/113/7 61/87/7 46/86/7 44/114/7 42/115/7 40/116/7
f 64/117/12 63/118/12 53/119/12 54/120/12
f 62/110/13 61/109/13 57/121/13 58/122/13
f 52/123/14 51/124/14 63/118/14 64/117/14
f 50/125/15 49/126/15 51/124/15 52/123/15
f 56/127/16 55/128/16 59/108/16 60/107/16
f 54/120/17 53/119/17 55/129/17 56/130/17
f 58/122/18 57/121/18 49/126/18 50/125/18
f 45/105/10 62/104/10 58/131/10 50/132/10 52/133/10 64/100/10 37/99/10 39/134/10 41/135/10 43/136/10
o Cube_Cube.001
v 0.739798 -0.521891 0.433038
v 0.739798 -0.171113 0.433038
v 0.739798 -0.521891 -0.464419
v 0.739798 -0.171113 -0.464419
v 1.786847 -0.521891 0.433038
v 1.786847 -0.171113 0.433038
v 1.786847 -0.521891 -0.464419
v 1.786847 -0.171113 -0.464419
v 1.005822 -0.521891 -0.464419
v 1.005822 -0.171113 -0.464419
v 1.005822 -0.521891 0.433038
v 1.005822 -0.171113 0.433038
v 1.005822 0.190442 -0.464419
v 1.786847 0.190442 -0.464419
v 1.786847 0.190442 0.433038
v 1.005822 0.190442 0.433038
v 1.005822 0.269411 -0.464419
v 1.786847 0.269411 -0.464419
v 1.786847 0.269411 0.433038
v 1.005822 0.269411 0.433038
v 2.152379 -0.775433 -0.354083
v 2.152379 -1.126210 -0.354083
v 2.152379 -1.126210 0.294106
v 2.152379 -0.775433 0.294106
v 2.152379 -0.413878 -0.354083
v 2.152379 -0.413878 0.294106
v 2.152379 -0.334908 -0.354083
v 2.152379 -0.334908 0.294106
v 2.701850 -0.775433 -0.354083
v 2.701850 -1.126210 -0.354083
v 2.701850 -1.126210 0.294106
v 2.701850 -0.775433 0.294106
v 2.701850 -0.413878 -0.354083
v 2.701850 -0.413878 0.294106
v 2.701850 -0.334908 -0.354083
v 2.701850 -0.334908 0.294106
vt 0.375000 0.000000
vt 0.625000 0.000000
vt 0.625000 0.250000
vt 0.375000 0.250000
vt 0.375000 0.936482
vt 0.625000 0.936482
vt 0.625000 1.000000
vt 0.375000 1.000000
vt 0.188518 0.500000
vt 0.375000 0.500000
vt 0.375000 0.750000
vt 0.188518 0.750000
vt 0.811482 0.500000
vt 0.875000 0.500000
vt 0.875000 0.750000
vt 0.811482 0.750000
vt 0.125000 0.500000
vt 0.125000 0.750000
vt 0.625000 0.313518
vt 0.375000 0.313518
vt 0.811482 0.750000
vt 0.811482 0.500000
vt 0.625000 0.500000
vt 0.811482 0.500000
vt 0.811482 0.750000
vt 0.625000 0.750000
vt 0.625000 0.500000
vt 0.625000 0.500000
vt 0.625000 0.500000
vt 0.625000 0.500000
vt 0.625000 0.500000
vt 0.375000 0.500000
vt 0.375000 0.500000
vt 0.625000 0.500000
vt 0.375000 0.750000
vt 0.625000 0.750000
vt 0.625000 0.750000
vt 0.625000 0.936482
vt 0.625000 0.936482
vt 0.625000 0.750000
vt 0.625000 0.313518
vt 0.625000 0.313518
vt 0.625000 0.500000
vt 0.625000 0.500000
vt 0.625000 0.750000
vt 0.625000 0.750000
vt 0.625000 0.750000
vt 0.375000 0.750000
vt 0.625000 0.750000
vt 0.625000 0.750000
vn -1.0000 0.0000 0.0000
vn 0.0000 0.0000 1.0000
vn 0.0000 -1.0000 0.0000
vn 0.0000 1.0000 0.0000
vn 0.0000 0.0000 -1.0000
vn -0.8557 -0.5176 0.0000
vn 0.8557 0.5176 0.0000
vn 1.0000 0.0000 0.0000
vn 0.3553 0.0000 0.9348
vn 0.2890 0.0000 -0.9573
usemtl Material
s off
f 65/137/19 66/138/19 68/139/19 67/140/19
f 75/141/20 76/142/20 66/143/20 65/144/20
f 73/145/21 71/146/21 69/147/21 75/148/21
f 74/149/22 68/150/22 66/151/22 76/152/22
f 67/153/21 73/145/21 75/148/21 65/154/21
f 67/140/23 68/139/23 74/155/23 73/156/23
f 74/149/19 76/152/19 80/157/19 77/158/19
f 82/159/22 81/160/22 84/161/22 83/162/22
f 77/158/19 80/157/19 84/161/19 81/160/19
f 89/163/23 91/164/23 99/165/23 97/166/23 93/167/23 94/168/23 86/169/23 85/170/23
f 69/147/24 71/146/24 86/169/24 87/171/24
f 69/147/20 70/172/20 79/173/20 83/162/20 84/174/20 80/175/20 76/142/20 75/141/20
f 82/159/25 83/162/25 92/176/25 91/164/25
f 73/156/23 74/155/23 77/177/23 81/178/23 82/159/23 78/179/23 72/180/23 71/146/23
f 94/168/26 93/167/26 97/166/26 99/165/26 100/181/26 98/182/26 96/183/26 95/184/26
f 70/172/27 69/147/27 87/171/27 88/185/27 90/186/27 92/176/27 83/162/27 79/173/27
f 78/179/28 82/159/28 91/164/28 89/163/28 85/170/28 86/169/28 71/146/28 72/180/28
f 91/164/22 92/176/22 100/181/22 99/165/22
f 87/171/21 86/169/21 94/168/21 95/184/21
f 90/186/20 88/185/20 87/171/20 95/184/20 96/183/20 98/182/20 100/181/20 92/176/20
o Cube.001_Cube.002
v -1.259733 -0.414887 0.253016
v -1.259733 -0.180619 0.253016
v -1.259733 -0.414887 -0.285402
v -1.259733 -0.180619 -0.285402
v 0.740267 -0.414887 0.253016
v 0.740267 -0.180619 0.253016
v 0.740267 -0.414887 -0.285402
v 0.740267 -0.180619 -0.285402
vt 0.375000 0.000000
vt 0.625000 0.000000
vt 0.625000 0.250000
vt 0.375000 0.250000
vt 0.625000 0.500000
vt 0.375000 0.500000
vt 0.625000 0.750000
vt 0.375000 0.750000
vt 0.625000 1.000000
vt 0.375000 1.000000
vt 0.125000 0.500000
vt 0.125000 0.750000
vt 0.875000 0.500000
vt 0.875000 0.750000
vn -1.0000 0.0000 0.0000
vn 0.0000 0.0000 -1.0000
vn 1.0000 0.0000 0.0000
vn 0.0000 0.0000 1.0000
vn 0.0000 -1.0000 0.0000
vn 0.0000 1.0000 0.0000
usemtl Material
s off
f 101/187/29 102/188/29 104/189/29 103/190/29
f 103/190/30 104/189/30 108/191/30 107/192/30
f 107/192/31 108/191/31 106/193/31 105/194/31
f 105/194/32 106/193/32 102/195/32 101/196/32
f 103/197/33 107/192/33 105/194/33 101/198/33
f 108/191/34 104/199/34 102/200/34 106/193/34
o Cube.002_Cube.004
v -1.941928 -0.152727 0.025319
v -1.941928 0.363265 0.025319
v -1.941928 -0.152727 -0.050043
v -1.941928 0.363265 -0.050043
v -1.779642 -0.152727 0.025319
v -1.779642 0.363265 0.025319
v -1.779642 -0.152727 -0.050043
v -1.779642 0.363265 -0.050043
vt 0.375000 0.000000
vt 0.625000 0.000000
vt 0.625000 0.250000
vt 0.375000 0.250000
vt 0.625000 0.500000
vt 0.375000 0.500000
vt 0.625000 0.750000
vt 0.375000 0.750000
vt 0.625000 1.000000
vt 0.375000 1.000000
vt 0.125000 0.500000
vt 0.125000 0.750000
vt 0.875000 0.500000
vt 0.875000 0.750000
vn -1.0000 0.0000 0.0000
vn 0.0000 0.0000 -1.0000
vn 1.0000 0.0000 0.0000
vn 0.0000 0.0000 1.0000
vn 0.0000 -1.0000 0.0000
vn 0.0000 1.0000 0.0000
usemtl Material.001
s off
f 109/201/35 110/202/35 112/203/35 111/204/35
f 111/204/36 112/203/36 116/205/36 115/206/36
f 115/206/37 116/205/37 114/207/37 113/208/37
f 113/208/38 114/207/38 110/209/38 109/210/38
f 111/211/39 115/206/39 113/208/39 109/212/39
f 116/205/40 112/213/40 110/214/40 114/207/40
o Cube.003_Cube.005
v 1.492232 -0.766682 0.089492
v 1.492232 -0.502655 0.089492
v 1.492232 -0.766682 0.014130
v 1.492232 -0.502655 0.014130
v 1.550593 -0.766682 0.089492
v 1.550593 -0.502655 0.089492
v 1.550593 -0.766682 0.014130
v 1.550593 -0.502655 0.014130
v 1.492232 -0.847950 0.014130
v 1.492232 -0.847950 0.089492
v 1.550593 -0.847950 0.014130
v 1.550593 -0.847950 0.089492
v 2.020762 -0.766682 0.089492
v 2.020762 -0.766682 0.014130
v 2.020762 -0.847950 0.089492
v 2.020762 -0.847950 0.014130
vt 0.375000 0.000000
vt 0.625000 0.000000
vt 0.625000 0.250000
vt 0.375000 0.250000
vt 0.625000 0.500000
vt 0.375000 0.500000
vt 0.625000 0.750000
vt 0.375000 0.750000
vt 0.625000 1.000000
vt 0.375000 1.000000
vt 0.375000 0.250000
vt 0.375000 0.000000
vt 0.875000 0.500000
vt 0.875000 0.750000
vt 0.125000 0.500000
vt 0.375000 0.500000
vt 0.375000 0.750000
vt 0.125000 0.750000
vt 0.375000 0.750000
vt 0.375000 0.500000
vt 0.375000 1.000000
vt 0.375000 0.750000
vt 0.375000 0.500000
vn -1.0000 0.0000 0.0000
vn 0.0000 0.0000 -1.0000
vn 1.0000 0.0000 0.0000
vn 0.0000 0.0000 1.0000
vn 0.0000 1.0000 0.0000
vn 0.0000 -1.0000 0.0000
usemtl Material.001
s off
f 117/215/41 118/216/41 120/217/41 119/218/41
f 119/218/42 120/217/42 124/219/42 123/220/42
f 123/220/43 124/219/43 122/221/43 121/222/43
f 121/222/44 122/221/44 118/223/44 117/224/44
f 117/215/41 119/218/41 125/225/41 126/226/41
f 124/219/45 120/227/45 118/228/45 122/221/45
f 125/229/46 127/230/46 128/231/46 126/232/46
f 123/220/45 121/222/45 129/233/45 130/234/45
f 121/222/44 117/224/44 126/235/44 128/231/44
f 119/218/42 123/220/42 127/230/42 125/225/42
f 130/234/43 129/233/43 131/236/43 132/237/43
f 121/222/44 128/231/44 131/236/44 129/233/44
f 128/231/46 127/230/46 132/237/46 131/236/46
f 127/230/42 123/220/42 130/234/42 132/237/42
o Cube.004_Cube.006
v 1.013409 -0.152727 -0.049674
v 1.013409 0.363265 -0.049674
v 1.013409 -0.152727 -0.125036
v 1.013409 0.363265 -0.125036
v 1.175694 -0.152727 -0.049674
v 1.175694 0.363265 -0.049674
v 1.175694 -0.152727 -0.125036
v 1.175694 0.363265 -0.125036
vt 0.375000 0.000000
vt 0.625000 0.000000
vt 0.625000 0.250000
vt 0.375000 0.250000
vt 0.625000 0.500000
vt 0.375000 0.500000
vt 0.625000 0.750000
vt 0.375000 0.750000
vt 0.625000 1.000000
vt 0.375000 1.000000
vt 0.125000 0.500000
vt 0.125000 0.750000
vt 0.875000 0.500000
vt 0.875000 0.750000
vn -1.0000 0.0000 0.0000
vn 0.0000 0.0000 -1.0000
vn 1.0000 0.0000 0.0000
vn 0.0000 0.0000 1.0000
vn 0.0000 -1.0000 0.0000
vn 0.0000 1.0000 0.0000
usemtl Material.001
s off
f 133/238/47 134/239/47 136/240/47 135/241/47
f 135/241/48 136/240/48 140/242/48 139/243/48
f 139/243/49 140/242/49 138/244/49 137/245/49
f 137/245/50 138/244/50 134/246/50 133/247/50
f 135/248/51 139/243/51 137/245/51 133/249/51
f 140/242/52 136/250/52 134/251/52 138/244/52
o Cube.005_Cube.007
v 1.013409 -0.152727 0.103721
v 1.013409 0.363265 0.103721
v 1.013409 -0.152727 0.028360
v 1.013409 0.363265 0.028360
v 1.175694 -0.152727 0.103721
v 1.175694 0.363265 0.103721
v 1.175694 -0.152727 0.028360
v 1.175694 0.363265 0.028360
vt 0.375000 0.000000
vt 0.625000 0.000000
vt 0.625000 0.250000
vt 0.375000 0.250000
vt 0.625000 0.500000
vt 0.375000 0.500000
vt 0.625000 0.750000
vt 0.375000 0.750000
vt 0.625000 1.000000
vt 0.375000 1.000000
vt 0.125000 0.500000
vt 0.125000 0.750000
vt 0.875000 0.500000
vt 0.875000 0.750000
vn -1.0000 0.0000 0.0000
vn 0.0000 0.0000 -1.0000
vn 1.0000 0.0000 0.0000
vn 0.0000 0.0000 1.0000
vn 0.0000 -1.0000 0.0000
vn 0.0000 1.0000 0.0000
usemtl Material.001
s off
f 141/252/53 142/253/53 144/254/53 143/255/53
f 143/255/54 144/254/54 148/256/54 147/257/54
f 147/257/55 148/256/55 146/258/55 145/259/55
f 145/259/56 146/258/56 142/260/56 141/261/56
f 143/262/57 147/257/57 145/259/57 141/263/57
f 148/256/58 144/264/58 142/265/58 146/258/58
o Cube.006_Cube.008
v 1.666095 -0.656850 0.105927
v 1.801176 -0.350348 0.078951
v 1.665673 -0.660968 0.057023
v 1.800753 -0.354466 0.030048
v 1.762862 -0.699256 0.108661
v 1.897943 -0.392754 0.081686
v 1.762440 -0.703374 0.059758
v 1.897520 -0.396872 0.032782
vt 0.375000 0.000000
vt 0.625000 0.000000
vt 0.625000 0.250000
vt 0.375000 0.250000
vt 0.625000 0.500000
vt 0.375000 0.500000
vt 0.625000 0.750000
vt 0.375000 0.750000
vt 0.625000 1.000000
vt 0.375000 1.000000
vt 0.125000 0.500000
vt 0.125000 0.750000
vt 0.875000 0.500000
vt 0.875000 0.750000
vn -0.9156 0.4012 -0.0259
vn -0.0086 -0.0839 -0.9964
vn 0.9156 -0.4012 0.0259
vn 0.0086 0.0839 0.9964
vn -0.4020 -0.9121 0.0803
vn 0.4020 0.9121 -0.0803
usemtl Material.001
s off
f 149/266/59 150/267/59 152/268/59 151/269/59
f 151/269/60 152/268/60 156/270/60 155/271/60
f 155/271/61 156/270/61 154/272/61 153/273/61
f 153/273/62 154/272/62 150/274/62 149/275/62
f 151/276/63 155/271/63 153/273/63 149/277/63
f 156/270/64 152/278/64 150/279/64 154/272/64
